<svg width="2000px" height="1720px"
 viewBox="0.00 0.00 293.46 251.63" xmlns="http://www.w3.org/2000/svg" xmlns:xlink="http://www.w3.org/1999/xlink">
<g id="graph0" class="graph" transform="scale(1.0 1.0) rotate(0) translate(4 247.63)">
<title>ContextMapGraph</title>
<polygon fill="white" stroke="transparent" points="-4,4 -4,-247.63 289.46,-247.63 289.46,4 -4,4"/>
<!-- nombre2Contexto -->
<g id="node1" class="node">
<title>nombre2Contexto</title>
<polygon fill="none" stroke="black" stroke-width="2" points="20.87,-67.62 16.98,-65.05 13.45,-62.45 10.29,-59.82 7.53,-57.18 5.17,-54.53 3.23,-51.88 1.71,-49.25 0.62,-46.65 -0.03,-44.07 -0.23,-41.54 0.02,-39.06 0.71,-36.64 1.86,-34.29 3.45,-32.01 5.49,-29.8 7.96,-27.68 10.85,-25.65 14.17,-23.72 17.89,-21.88 22.01,-20.14 26.5,-18.51 31.35,-16.99 36.55,-15.57 42.07,-14.26 47.89,-13.06 54,-11.97 60.36,-10.99 66.96,-10.12 73.78,-9.36 80.77,-8.7 87.93,-8.15 95.22,-7.7 102.62,-7.35 110.1,-7.11 117.64,-6.95 125.21,-6.9 132.79,-6.93 140.34,-7.06 147.85,-7.27 155.3,-7.56 162.65,-7.94 169.89,-8.4 177,-8.94 183.95,-9.56 190.72,-10.25 197.31,-11.01 203.69,-11.85 209.84,-12.75 215.76,-13.73 221.43,-14.77 226.83,-15.89 231.96,-17.07 236.81,-18.32 241.37,-19.63 245.63,-21.01 249.58,-22.45 253.23,-23.96 256.56,-25.53 259.58,-27.16 262.29,-28.86 264.67,-30.61 266.74,-32.42 268.48,-34.29 269.91,-36.21 271.03,-38.19 271.83,-40.22 272.32,-42.29 272.5,-44.41 272.38,-46.56 271.95,-48.75 271.23,-50.98 270.21,-53.22 268.9,-55.49 267.31,-57.77 265.44,-60.06 263.29,-62.36 260.87,-64.64 258.18,-66.92 255.23,-69.17 252.02,-71.4 248.56,-73.59 244.85,-75.73 240.9,-77.82 236.71,-79.85 232.29,-81.81 227.65,-83.69 222.79,-85.49 217.72,-87.19 212.45,-88.78 206.99,-90.27 201.34,-91.63 195.51,-92.87 189.51,-93.98 183.37,-94.95 177.07,-95.77 170.65,-96.45 164.1,-96.97 157.45,-97.34 150.71,-97.54 143.89,-97.59 137.02,-97.46 130.1,-97.18 123.15,-96.73 116.2,-96.11 109.26,-95.33 102.36,-94.4 95.5,-93.3 88.72,-92.06 82.03,-90.67 75.46,-89.13 69.03,-87.46 62.75,-85.66 56.66,-83.74 50.77,-81.7 45.1,-79.57 39.68,-77.33 34.53,-75.01 29.66,-72.61 25.1,-70.14 20.87,-67.62"/>
<text text-anchor="middle" x="142.73" y="-45.06" font-family="sans-serif" font-size="16.00">nombre2Contexto</text>
</g>
<!-- nombreContexto -->
<g id="node2" class="node">
<title>nombreContexto</title>
<polygon fill="none" stroke="black" stroke-width="2" points="268.15,-187.28 269.76,-190.1 271.03,-192.91 271.93,-195.73 272.46,-198.52 272.62,-201.28 272.4,-204 271.81,-206.68 270.84,-209.29 269.49,-211.83 267.77,-214.3 265.68,-216.68 263.22,-218.96 260.4,-221.14 257.22,-223.22 253.71,-225.18 249.85,-227.02 245.68,-228.74 241.19,-230.34 236.41,-231.8 231.35,-233.13 226.01,-234.33 220.43,-235.4 214.62,-236.34 208.59,-237.14 202.37,-237.81 195.97,-238.35 189.42,-238.76 182.74,-239.05 175.94,-239.21 169.06,-239.26 162.11,-239.19 155.11,-239.01 148.09,-238.72 141.07,-238.33 134.07,-237.84 127.12,-237.26 120.22,-236.59 113.42,-235.83 106.72,-234.99 100.14,-234.08 93.71,-233.09 87.45,-232.04 81.37,-230.92 75.48,-229.74 69.81,-228.5 64.37,-227.21 59.18,-225.86 54.24,-224.46 49.57,-223.02 45.18,-221.53 41.09,-220 37.29,-218.42 33.8,-216.81 30.63,-215.15 27.78,-213.46 25.25,-211.73 23.06,-209.96 21.2,-208.16 19.67,-206.33 18.48,-204.46 17.62,-202.56 17.1,-200.64 16.91,-198.68 17.05,-196.7 17.52,-194.69 18.32,-192.67 19.43,-190.62 20.86,-188.55 22.6,-186.48 24.64,-184.39 26.97,-182.3 29.59,-180.22 32.49,-178.13 35.67,-176.06 39.1,-174 42.79,-171.96 46.73,-169.95 50.9,-167.98 55.29,-166.04 59.9,-164.16 64.71,-162.33 69.71,-160.57 74.89,-158.88 80.25,-157.27 85.76,-155.74 91.41,-154.31 97.2,-152.99 103.11,-151.77 109.12,-150.67 115.23,-149.69 121.42,-148.85 127.68,-148.14 133.99,-147.57 140.33,-147.15 146.7,-146.88 153.08,-146.77 159.45,-146.82 165.8,-147.02 172.11,-147.39 178.36,-147.93 184.55,-148.62 190.66,-149.48 196.66,-150.51 202.54,-151.69 208.29,-153.02 213.9,-154.51 219.33,-156.15 224.59,-157.92 229.64,-159.83 234.49,-161.87 239.11,-164.03 243.48,-166.3 247.6,-168.67 251.45,-171.14 255.01,-173.69 258.28,-176.31 261.23,-178.99 263.87,-181.72 266.18,-184.49 268.15,-187.28"/>
<text text-anchor="middle" x="142.73" y="-191.37" font-family="sans-serif" font-size="16.00">nombreContexto</text>
</g>
<!-- nombreContexto&#45;&gt;nombre2Contexto -->
<g id="edge1" class="edge">
<title>nombreContexto&#45;&gt;nombre2Contexto</title>
<path fill="none" stroke="black" stroke-width="2" d="M142.73,-146.92C142.73,-131.14 142.73,-113.54 142.73,-97.72"/>
<text text-anchor="middle" x="184.73" y="-119.12" font-family="sans-serif" font-size="12.00">Shared Kernel</text>
</g>
</g>
</svg>
